<?xml version="1.0" encoding="UTF-8"?>
<svg xmlns="http://www.w3.org/2000/svg" xmlns:xlink="http://www.w3.org/1999/xlink" viewBox="0 0 48 48" width="48px" height="48px">
<g id="surface210225">
<path style=" stroke:none;fill-rule:nonzero;fill:rgb(90.588236%,89.019608%,89.019608%);fill-opacity:1;" d="M 20.5 6 C 12.515625 6 6 12.515625 6 20.5 C 6 28.484375 12.515625 35 20.5 35 C 23.773438 35 26.789062 33.894531 29.222656 32.050781 L 38.585938 41.414062 C 39.085938 41.9375 39.832031 42.148438 40.535156 41.964844 C 41.234375 41.78125 41.78125 41.234375 41.964844 40.535156 C 42.148438 39.832031 41.9375 39.085938 41.414062 38.585938 L 32.050781 29.21875 C 33.894531 26.789062 35 23.773438 35 20.5 C 35 12.515625 28.484375 6 20.5 6 Z M 20.5 10 C 26.324219 10 31 14.675781 31 20.5 C 31 23.296875 29.914062 25.820312 28.148438 27.695312 C 27.976562 27.820312 27.824219 27.972656 27.699219 28.144531 C 25.824219 29.914062 23.296875 31 20.5 31 C 14.675781 31 10 26.324219 10 20.5 C 10 14.675781 14.675781 10 20.5 10 Z M 20.5 10 "/>
</g>
</svg>
